<svg xmlns="http://www.w3.org/2000/svg" viewBox="0 0 45.2 56.47"><g id="图层_2" data-name="图层 2"><g id="图层_1-2" data-name="图层 1"><path d="M22.09,56.47C13.2,51.87,1.4,46.07.05,35c-.11-9,0-18.1,0-27.15,0-.31,0-.32.31-.32C8.2,7.87,15.73,4.65,22,0h1.41c5.79,5.28,13.91,6.84,21.46,7.67.36,0,.38,0,.38.41V34a15.67,15.67,0,0,1-2.66,8.56c-4.2,6.27-11.06,10.08-17.75,13.17l-1.71.78ZM41.42,22.73V11.46c0-.38,0-.38-.38-.43A52.23,52.23,0,0,1,30.65,8.55,30.77,30.77,0,0,1,22.72,4.4a.31.31,0,0,0-.42,0C16.91,8,10.73,10.71,4.19,11.21c-.4,0-.4,0-.4.45,0,7.72-.1,15.45,0,23.17.9,8,12.24,14.85,19,17.58,7.93-3.77,18.47-9,18.57-19.07C41.38,29.8,41.42,26.27,41.42,22.73Z"/><path d="M20.79,37.56a3.75,3.75,0,0,1-2.9-1.37l-5.1-5.78-1.93-2.18A1.9,1.9,0,0,1,12.3,25a1.79,1.79,0,0,1,1.35.63c2,2.27,4,4.56,6,6.83l.95,1.08c.12.14.2.17.34,0l6-7.39c1.88-2.27,3.69-4.6,5.6-6.84a1.89,1.89,0,0,1,2.87,2.42c-2.16,2.73-4.39,5.4-6.57,8.11l-5.19,6.36A3.8,3.8,0,0,1,20.79,37.56Z"/></g></g></svg>